<svg xmlns="http://www.w3.org/2000/svg" width="11.396" height="11.396" viewBox="0 0 11.396 11.396"><defs><style>.a{fill:#8f9ba3;}</style></defs><path class="a" d="M7.7,2A5.774,5.774,0,0,0,2,7.7a5.774,5.774,0,0,0,5.7,5.7,5.774,5.774,0,0,0,5.7-5.7A5.774,5.774,0,0,0,7.7,2Zm0,2.849A1.66,1.66,0,0,1,9.407,6.558,1.66,1.66,0,0,1,7.7,8.268,1.661,1.661,0,0,1,5.989,6.558,1.661,1.661,0,0,1,7.7,4.849ZM4.789,10.417a2.826,2.826,0,0,1,2.34-1.254h1.14a2.825,2.825,0,0,1,2.34,1.254,3.969,3.969,0,0,1-5.819,0Z" transform="translate(-2 -2)"/></svg>